<svg xmlns="http://www.w3.org/2000/svg" viewBox="0 0 220 230" width="60" height="63" focusable="false" role="img" aria-labelledby="uscca-logo-in-header">
  <title id="uscca-logo-in-header">USCCA Home</title>
  <g fill="#ffffff"><path d="M153.9 209.2c2.3 0 4.1-1.8 4.1-4.1s-1.8-4.1-4.1-4.1c-2.2 0-4.1 1.8-4.1 4.1s1.8 4.1 4.1 4.1zm0-7.5c1.9 0 3.4 1.5 3.4 3.4s-1.5 3.4-3.4 3.4-3.4-1.5-3.4-3.4 1.5-3.4 3.4-3.4z"></path><path d="M152.9 205.6h.7l1.2 1.8h.9l-1.2-1.9c.3 0 1.2-.3 1.2-1.4 0-.9-.8-1.4-1.6-1.4h-1.9v4.6h.7v-1.7zm0-2.2h1.2c.4 0 .8.3.8.8s-.4.8-.8.8h-1.2v-1.6z"></path></g>
  <g fill="#ffffff"><path d="M78 41zM160.5 153.1H180c28.1-54.3 23.1-104.3 23.1-104.3-45.4-11.1-79.5-37.6-91-48.8v22.7c9.5 7.6 35.8 27.8 74.4 39.5.1 0 1.1 43.8-26 90.9zM201.2 161.5c-.7-1.2-1.5-2.2-2.4-3.1-.9-.8-2.1-1.2-3.6-1.2s-2.7.4-3.7 1.3-1.8 1.9-2.4 3l-20.8 34.7h12.4l14.3-25.5 3.8 7.1h-4.2l-5.9 10.1h15.5c1.9 3.6 4.4 8.2 4.4 8.2h11.5l-18.9-34.6z"></path><path d="M150.9 153.1c27-46.6 27.9-86.7 27.9-86.7-11.4 53.7-42.4 86.6-42.5 86.7h14.6zM148 186.3c-1.3 0-2.4-.2-3.5-.7-1.1-.4-2-1.1-2.8-1.8-.8-.8-1.4-1.8-1.9-2.9-.4-1.1-.7-2.4-.7-3.7 0-1.4.2-2.6.7-3.7.5-1.1 1.1-2.1 1.9-2.9.8-.8 1.7-1.4 2.8-1.9 1.1-.5 2.3-.7 3.5-.7h15.2l6-9.9H148c-2.6 0-5.1.4-7.3 1.3s-4.2 2.2-5.8 3.8c-1.6 1.7-2.9 3.6-3.8 5.9-.9 2.3-1.4 4.8-1.4 7.6s.5 5.4 1.4 7.7c.9 2.4 2.2 4.4 3.8 6.2 1.6 1.7 3.6 3.1 5.8 4.1 2.2 1 4.7 1.5 7.3 1.5h15.2l6.3-9.9H148zM112.1 209.3v20.3c13.1-9 24.1-18.7 33.8-28.6h-24.1c-3.1 2.8-6.3 5.6-9.7 8.3zM126.3 186.3h-21.5c-1.3 0-2.4-.2-3.5-.6-1.1-.4-2-1.1-2.8-1.9-.8-.8-1.4-1.8-1.9-2.9-.4-1.1-.7-2.4-.7-3.7 0-1.4.2-2.6.7-3.7.5-1.1 1.1-2.1 1.9-2.9.8-.8 1.7-1.4 2.8-1.9 1.1-.5 2.3-.7 3.5-.7H120l6-9.9h-21.3c-2.6 0-5.1.4-7.3 1.3s-4.2 2.2-5.8 3.8c-1.6 1.7-2.9 3.6-3.8 5.9-.9 2.3-1.4 4.8-1.4 7.6s.5 5.3 1.4 7.7c.9 2.4 2.2 4.4 3.8 6.2 1.6 1.7 3.5 3.1 5.8 4.1 2.2 1 4.7 1.5 7.3 1.5h15.2l6.4-9.9zM76.7 195.3c1.6-.6 3-1.4 4.1-2.4 1.1-1.1 1.8-2.4 2.3-3.9.5-1.6.7-3.3.7-5.2 0-3.5-1-6.1-2.9-7.8-1.9-1.7-4.8-2.6-8.5-2.6H55.9c-1.1 0-1.9-.2-2.4-.6-.5-.4-.8-1.1-.8-2.1s.3-1.7.8-2.1c.5-.4 1.3-.6 2.4-.6h21l6-9.9H56.6c-2.3 0-4.3.3-5.9.9-1.6.6-3 1.4-4 2.4s-1.8 2.3-2.3 3.7c-.5 1.5-.7 3.1-.7 4.9 0 1.6.2 3.1.7 4.5.4 1.3 1.1 2.5 2.1 3.4.9.9 2.1 1.7 3.5 2.2 1.4.5 3.1.8 5.1.8h16.5c1.1 0 1.9.2 2.4.6.5.4.8 1.1.8 2.1s-.3 1.7-.8 2.1c-.5.4-1.3.7-2.4.7h-23l-6 9.8h28.2c2.3 0 4.2-.3 5.9-.9z"></path><path d="M76.7 195.3c1.6-.6 3-1.4 4.1-2.4 1.1-1.1 1.8-2.4 2.3-3.9.5-1.6.7-3.3.7-5.2 0-3.5-1-6.1-2.9-7.8-1.9-1.7-4.8-2.6-8.5-2.6H55.9c-1.1 0-1.9-.2-2.4-.6-.5-.4-.8-1.1-.8-2.1s.3-1.7.8-2.1c.5-.4 1.3-.6 2.4-.6h21l6-9.9H56.6c-2.3 0-4.3.3-5.9.9-1.6.6-3 1.4-4 2.4s-1.8 2.3-2.3 3.7c-.5 1.5-.7 3.1-.7 4.9 0 1.6.2 3.1.7 4.5.4 1.3 1.1 2.5 2.1 3.4.9.9 2.1 1.7 3.5 2.2 1.4.5 3.1.8 5.1.8h16.5c1.1 0 1.9.2 2.4.6.5.4.8 1.1.8 2.1s-.3 1.7-.8 2.1c-.5.4-1.3.7-2.4.7h-23l-6 9.8h28.2c2.3 0 4.2-.3 5.9-.9zM30.4 179.4c0 1.3-.2 2.5-.5 3.4-.3.9-.8 1.7-1.6 2.3-.7.6-1.7 1.1-2.9 1.3-1.2.3-2.7.4-4.5.4-2.4 0-4.4-.1-5.9-.4-1.5-.2-2.7-.7-3.5-1.3-.8-.6-1.4-1.4-1.7-2.3-.3-.9-.5-2.1-.5-3.5V158H0v21.3c0 2.9.4 5.4 1.2 7.6.8 2.2 2.1 3.9 3.8 5.4 1.7 1.4 3.9 2.5 6.5 3.2 2.6.7 5.8 1.1 9.4 1.1 12.6 0 18.9-5.8 18.9-17.3V158h-9.4v21.4z"></path><path d="M30.4 179.4c0 1.3-.2 2.5-.5 3.4-.3.9-.8 1.7-1.6 2.3-.7.6-1.7 1.1-2.9 1.3-1.2.3-2.7.4-4.5.4-2.4 0-4.4-.1-5.9-.4-1.5-.2-2.7-.7-3.5-1.3-.8-.6-1.4-1.4-1.7-2.3-.3-.9-.5-2.1-.5-3.5V158H0v21.3c0 2.9.4 5.4 1.2 7.6.8 2.2 2.1 3.9 3.8 5.4 1.7 1.4 3.9 2.5 6.5 3.2 2.6.7 5.8 1.1 9.4 1.1 12.6 0 18.9-5.8 18.9-17.3V158h-9.4v21.4zM70.7 201c9.7 9.9 20.6 19.6 33.8 28.6v-20.3c-3.4-2.7-6.6-5.5-9.7-8.3H70.7zM65.6 153.1c-1.2-11.7 2.7-21.3 9.4-28 18.1-18.3 52.1-8.9 51.3 17.3 0 .1 52.2-36.2-10.8-61.9C131.2 59.6 85 43 78 41c15.3-9.1 24.7-16.9 26.5-18.3V0C93 11.2 58.9 37.8 13.5 48.8c0 0-5 50 23.1 104.3h29zm2.8-72.9l5.5-17.1 5.4 17.1h18.3l-14.7 11 5.7 17.6L73.9 98l-14.7 10.8L65 91.2l-14.9-11h18.3z"></path></g>
</svg>